<svg width="948" height="288" viewBox="0 0 948 288" fill="none" xmlns="http://www.w3.org/2000/svg">
<g clip-path="url(#clip0_3132_3418)">
<path d="M63.5999 216.1V223L55.7999 225C57.1999 227.2 57.8999 229.7 57.8999 232.5C57.8999 237.8 55.9999 242 52.2999 245C48.5999 248 43.3999 249.5 36.7999 249.5L34.3999 249.4L32.3999 249.2C30.9999 250.3 30.2999 251.5 30.2999 252.8C30.2999 254.8 32.7999 255.7 37.7999 255.7H46.1999C51.6999 255.7 55.7999 256.9 58.6999 259.2C61.5999 261.5 62.9999 265 62.9999 269.5C62.9999 275.3 60.5999 279.8 55.6999 283C50.8999 286.2 43.8999 287.8 34.7999 287.8C27.8999 287.8 22.5999 286.6 18.8999 284.2C15.1999 281.8 13.3999 278.4 13.3999 274C13.3999 271 14.2999 268.5 16.1999 266.5C18.0999 264.5 20.7999 263 24.3999 262.2C22.9999 261.6 21.7999 260.6 20.7999 259.3C19.7999 258 19.1999 256.5 19.1999 255C19.1999 253.1 19.6999 251.5 20.7999 250.3C21.8999 249 23.4999 247.8 25.5999 246.6C22.9999 245.5 20.8999 243.7 19.3999 241.2C17.8999 238.7 17.0999 235.8 17.0999 232.4C17.0999 227 18.8999 222.8 22.3999 219.8C25.8999 216.8 30.9999 215.4 37.4999 215.4C38.8999 215.4 40.4999 215.5 42.4999 215.8C44.3999 216.1 45.5999 216.2 46.1999 216.4H63.5999V216.1ZM25.2999 272.9C25.2999 274.8 26.1999 276.2 27.9999 277.3C29.7999 278.4 32.2999 278.9 35.4999 278.9C40.3999 278.9 44.1999 278.2 46.8999 276.9C49.6999 275.6 50.9999 273.7 50.9999 271.4C50.9999 269.5 50.1999 268.2 48.5999 267.5C46.9999 266.8 44.4999 266.4 40.9999 266.4H33.9999C31.4999 266.4 29.3999 267 27.7999 268.2C26.0999 269.4 25.2999 270.9 25.2999 272.9ZM30.1999 232.4C30.1999 235.1 30.7999 237.2 31.9999 238.8C33.1999 240.4 35.0999 241.2 37.5999 241.2C40.0999 241.2 41.9999 240.4 43.1999 238.8C44.3999 237.2 44.9999 235.1 44.9999 232.4C44.9999 226.4 42.4999 223.4 37.5999 223.4C32.6999 223.4 30.1999 226.4 30.1999 232.4Z" fill="#222222"/>
<path d="M85.4 216.1H71.8V265.8H85.4V216.1Z" fill="#222222"/>
<path d="M142.8 216.1V223L135 225C136.4 227.2 137.1 229.7 137.1 232.5C137.1 237.8 135.2 242 131.5 245C127.8 248 122.6 249.5 116 249.5L113.6 249.4L111.6 249.2C110.2 250.3 109.5 251.5 109.5 252.8C109.5 254.8 112 255.7 117 255.7H125.4C130.9 255.7 135 256.9 137.9 259.2C140.8 261.5 142.2 265 142.2 269.5C142.2 275.3 139.8 279.8 134.9 283C130.1 286.2 123.1 287.8 114 287.8C107.1 287.8 101.8 286.6 98.1001 284.2C94.4001 281.8 92.6001 278.4 92.6001 274C92.6001 271 93.5001 268.5 95.4001 266.5C97.3001 264.5 100 263 103.6 262.2C102.2 261.6 101 260.6 100 259.3C99.0001 258 98.4001 256.5 98.4001 255C98.4001 253.1 98.9001 251.5 100 250.3C101.1 249 102.7 247.8 104.8 246.6C102.2 245.5 100.1 243.7 98.6001 241.2C97.1001 238.7 96.3001 235.8 96.3001 232.4C96.3001 227 98.1001 222.8 101.6 219.8C105.1 216.8 110.2 215.4 116.7 215.4C118.1 215.4 119.7 215.5 121.7 215.8C123.6 216.1 124.8 216.2 125.4 216.4H142.8V216.1ZM104.4 272.9C104.4 274.8 105.3 276.2 107.1 277.3C108.9 278.4 111.4 278.9 114.6 278.9C119.5 278.9 123.3 278.2 126 276.9C128.8 275.6 130.1 273.7 130.1 271.4C130.1 269.5 129.3 268.2 127.7 267.5C126.1 266.8 123.6 266.4 120.1 266.4H113.1C110.6 266.4 108.5 267 106.9 268.2C105.3 269.4 104.4 270.9 104.4 272.9ZM109.4 232.4C109.4 235.1 110 237.2 111.2 238.8C112.4 240.4 114.3 241.2 116.8 241.2C119.3 241.2 121.2 240.4 122.4 238.8C123.6 237.2 124.2 235.1 124.2 232.4C124.2 226.4 121.7 223.4 116.8 223.4C111.9 223.4 109.4 226.4 109.4 232.4Z" fill="#222222"/>
<path d="M182.5 265.8L179.9 259H179.5C177.2 261.9 174.9 263.9 172.5 265C170.1 266.1 166.9 266.7 163.1 266.7C158.3 266.7 154.6 265.3 151.8 262.6C149.1 259.9 147.7 256 147.7 251C147.7 245.7 149.5 241.8 153.2 239.3C156.9 236.8 162.4 235.4 169.9 235.1L178.5 234.8V232.6C178.5 227.6 175.9 225 170.8 225C166.8 225 162.2 226.2 156.8 228.6L152.3 219.4C158 216.4 164.4 214.9 171.3 214.9C178 214.9 183.1 216.4 186.6 219.3C190.2 222.2 191.9 226.6 191.9 232.5V265.6H182.5V265.8ZM178.5 242.8L173.3 243C169.4 243.1 166.4 243.8 164.5 245.1C162.6 246.4 161.6 248.4 161.6 251.1C161.6 254.9 163.8 256.8 168.2 256.8C171.3 256.8 173.8 255.9 175.7 254.1C177.6 252.3 178.5 249.9 178.5 246.9V242.8Z" fill="#222222"/>
<path d="M245.1 4.79998C245.8 3.49998 245.6 1.79998 244.5 0.799983C243.4 -0.200017 241.7 -0.400017 240.5 0.499983C204.5 24.3 159.1 59.1 124 101.9C110 96.6 97.1001 92.9 85.5001 90.2C85.5001 90.3 85.5001 90.5 85.5001 90.6C85.5001 92.8 85.0001 94.8 84.1001 96.7C95.1001 99.2 107.1 102.6 119.7 107.3C110 119.7 101.1 132.7 93.6001 146.3C86.6001 158.9 82.0001 170 78.8001 179.3C78.1001 173.8 77.0001 167.9 75.3001 161.6C69.1001 139.3 53.7001 109.8 15.4001 90.9C24.8001 90.2 39.6001 89.9 58.4001 92.2C58.3001 91.7 58.3001 91.2 58.3001 90.7C58.3001 88.9 58.7001 87.2 59.3001 85.6C24.8001 81.3 3.50008 85.7 2.60008 85.9C1.20008 86.2 0.200085 87.4 8.47215e-05 88.8C-0.0999153 90.2 0.700085 91.6 2.10008 92.1C37.2001 106 59.7001 129.8 69.0001 163C71.9001 173.3 73.0001 182.9 73.2001 190.7C74.9001 190 76.7001 189.6 78.6001 189.6C79.0001 189.6 79.3001 189.6 79.7001 189.7C80.6001 189.8 81.5001 189.9 82.3001 190.2C85.1001 179.8 90.3001 165.7 99.5001 149C107.1 135.3 116 122.3 126 109.8C136.8 114 148.1 119.1 159.7 125.3C160.4 123.2 161.6 121.3 163.2 119.8C151.8 113.7 140.8 108.7 130.3 104.5C161.7 66.7 201.2 35.2 234.6 12.4C232.1 18.9 229 28.3 226.3 40.6C226.5 40.6 226.6 40.6 226.8 40.6C228.9 40.6 230.9 41.1 232.7 42C233.4 38.8 234.1 35.9 234.8 33.2C239.8 14.7 245.1 4.89998 245.1 4.79998Z" fill="#277AFF"/>
<path d="M222.1 66.8C220.6 80.2 219.9 95.7 220.5 113.1C214.9 114.2 201.4 117.2 184.5 123C185.6 124.9 186.2 127.1 186.2 129.4C208 121.8 224.1 119 224.5 118.9C226.1 118.6 227.3 117.2 227.2 115.5C226.4 97.2 227.2 81.1 228.7 67.4C228.1 67.5 227.5 67.5 226.9 67.5C225.2 67.7 223.6 67.4 222.1 66.8Z" fill="#277AFF"/>
<path d="M207.8 155.8C197.4 155.7 180.5 156.1 161.4 159.4C136 163.8 114.6 171.9 97.9 183.5C116.4 163.3 140.5 148.9 162.7 138.9C161.2 137.3 160.1 135.3 159.5 133.1C134.7 144.2 104.2 162.6 83.7 190.7C84.8 191.1 85.8 191.7 86.7 192.4C88.5 193.7 89.9 195.4 90.9 197.4C135.2 156.5 216.9 162.7 217.8 162.8C219.2 162.9 220.6 162.1 221.1 160.7C221.6 159.4 221.2 157.8 220.1 156.9C208.5 147.8 197 139.8 185.9 132.8C185.4 135 184.3 137 182.9 138.6C191 143.8 199.3 149.5 207.8 155.8Z" fill="#277AFF"/>
<path d="M172.6 122C170.9 122 169.4 122.6 168.1 123.5C166.5 124.7 165.3 126.5 165.1 128.7C165.1 129 165 129.3 165 129.6C165 132.7 166.9 135.4 169.6 136.6C170.5 137 171.5 137.2 172.5 137.2C173 137.2 173.5 137.1 174 137C177.4 136.3 180 133.2 180 129.6C180.2 125.4 176.8 122 172.6 122Z" fill="#222222"/>
<path d="M70.4 98.1C70.9 98.2 71.4 98.3 71.9 98.3C76.1 98.3 79.5 94.9 79.5 90.7C79.5 86.5 76.1 83.1 71.9 83.1C67.7 83.1 64.3 86.5 64.3 90.7C64.3 94.3 66.9 97.4 70.4 98.1Z" fill="#222222"/>
<path d="M222.1 48.3C221.3 49 220.6 49.9 220.1 50.8C219.6 51.8 219.4 52.9 219.4 54C219.4 54.3 219.4 54.6 219.5 55C219.8 57.2 221 59.1 222.8 60.3C224 61.1 225.5 61.6 227 61.6C228 61.6 229 61.4 229.9 61C232.1 60.1 233.7 58.2 234.3 55.9C234.4 55.6 234.4 55.3 234.5 55C234.5 54.7 234.6 54.4 234.6 54.1C234.6 49.9 231.2 46.5 227 46.5C225.1 46.5 223.4 47.2 222.1 48.3Z" fill="#222222"/>
<path d="M84.0001 197.9C83.9001 197.8 83.8001 197.8 83.8001 197.7C83.2001 197.1 82.4001 196.6 81.6001 196.3C80.7001 195.9 79.7001 195.7 78.7001 195.7C74.5001 195.7 71.1001 199.1 71.1001 203.3C71.1001 205.9 72.4001 208.2 74.4001 209.6C74.8001 209.9 75.2001 210.1 75.7001 210.3C76.6001 210.7 77.6001 210.9 78.6001 210.9C80.6001 210.9 82.4001 210.1 83.8001 208.9C84.0001 208.7 84.2001 208.5 84.4001 208.3C84.6001 208.1 84.8001 207.8 85.0001 207.6C85.8001 206.4 86.3001 204.9 86.3001 203.4C86.3001 201.4 85.5001 199.6 84.2001 198.2C84.1001 198 84.0001 197.9 84.0001 197.9Z" fill="#222222"/>
<path d="M812.2 127.7C812.7 127.7 813.1 128.1 813.1 128.6V181.4C813.1 181.9 812.7 182.3 812.2 182.3H796.4C795.9 182.3 795.5 181.9 795.5 181.4V128.6C795.5 128.1 795.9 127.7 796.4 127.7H812.2Z" fill="#222222"/>
<path d="M869.2 127.7C869.7 127.7 870.1 128.1 870.1 128.6V141.6C870.1 142.1 869.7 142.5 869.2 142.5H855.4C854.9 142.5 854.5 142.9 854.5 143.4V181.4C854.5 181.9 854.1 182.3 853.6 182.3H837.8C837.3 182.3 836.9 181.9 836.9 181.4V143.4C836.9 142.9 836.5 142.5 836 142.5H822.5C822 142.5 821.6 142.1 821.6 141.6V128.6C821.6 128.1 822 127.7 822.5 127.7H869.2Z" fill="#222222"/>
<path d="M930.7 127.7C931.2 127.7 931.6 128.1 931.6 128.6V155.5C931.6 173.3 922.3 182.7 904.6 182.7C887.5 182.7 878.9 173.4 878.9 155.1V128.6C878.9 128.1 879.3 127.7 879.8 127.7H895.6C896.1 127.7 896.5 128.1 896.5 128.6V155C896.5 160.8 898 167.7 905.3 167.7C911.2 167.7 914.1 163.5 914.1 155V128.6C914.1 128.1 914.5 127.7 915 127.7H930.7Z" fill="#222222"/>
<path d="M947.3 236.6C936.8 231.4 925 225.5 914.1 219C916 217.6 917.7 216.1 919.5 214.5C936.4 199.3 947 177.3 947 152.9C947 135.5 941.6 119.4 932.5 106.1C917.4 83.7 891.9 69 863 69C846.6 69 831.3 73.7 818.4 81.9C811.6 72.4 804.8 62.1 797.5 51.2C799.8 55.8 806.5 70 814.4 84.6C796.4 97.4 783.7 117.1 780.2 139.8C779.5 144.1 779.1 148.5 779.1 153C779.1 165.9 782.1 178.2 787.4 189.1C800.9 217.2 829.7 236.6 862.9 236.6C880 236.6 895.9 231.4 909.2 222.6C922 227.8 934.8 232.2 947.3 236.6ZM855.1 229.3C835.6 227.3 818.3 218.2 805.8 204.6C803.9 201.9 802.7 198.5 802.3 194.7C810.1 202.2 819.9 209 831.1 214.4C843.3 220.2 856.1 223.9 868.3 225.3C864 228.3 859.5 229.7 855.1 229.3ZM800.5 187.6C800.4 188.4 800.4 189.1 800.3 189.9C799.6 189.1 798.9 188.4 798.3 187.6H795.8C797.2 189.3 798.7 191 800.3 192.6C800.4 194.9 800.7 197.1 801.3 199.2C791.4 186.3 785.6 170.2 785.6 152.8C785.6 137.2 790.3 122.6 798.4 110.5C797.5 114.2 797.1 118.1 797.2 122.2H799.1C798.9 116.1 799.9 110.4 802.2 105.3C805.3 101.4 808.7 97.9 812.4 94.6C814.4 93.5 816.4 92.5 818.4 91.5C823 99.5 827.7 107.1 832.1 112.8C831.2 112.9 824.1 113.3 817.3 112.5L818.1 112.7C817.8 112.7 817.6 112.7 817.3 112.6C818.9 115.8 820.6 119 822.4 122.1H854.3C852.6 120.7 851 119.3 849.4 117.9C856.8 111.9 864.5 106.8 872.2 102.9C874.6 105.7 877.9 108.2 881.7 110.2C886.6 112.8 891.8 114.1 896.4 114.2C897 116.8 897.4 119.4 897.8 122.1H899.7C899.3 119.4 898.8 116.7 898.3 114.1C903.1 113.9 907.1 112.4 909.5 109.6C913.5 113.5 917.1 117.7 920.1 122.1H922.4C919.1 117.1 915.1 112.4 910.6 108.1C911.9 105.8 912.2 103 911.4 100C910.9 98.1 910 96.2 908.7 94.4C912.4 95.1 915.6 96.6 918 98.8C931.8 112.7 940.2 131.7 940.2 152.7C940.2 162.5 938.4 171.8 935 180.4C928.5 194 912.6 201.4 893.1 202C901.3 199.9 907.9 197.1 915.6 192.1C912.7 190.8 909.8 189.3 906.9 187.7C906 187.7 905.1 187.8 904.1 187.8C887.9 187.8 877.8 180.7 874.5 166.5C869.4 162.6 864.4 158.5 859.6 154.4V166.2C866.4 172.4 873.2 178.1 879.6 183.4C874.7 186.7 858.9 191.5 855.8 192C858.5 194.1 861.2 196.2 863.9 198.1C857.4 196.3 850.8 193.8 844.3 190.7C843.7 190.4 843.1 190.1 842.4 189.8C842.3 189.8 842.2 189.7 842.1 189.7C840.9 189.1 839.8 188.5 838.7 187.9C830.6 183.5 823.6 178.3 818 172.6V175.2C819.8 177 821.8 178.7 823.9 180.4C830 185.3 837.1 189.6 844.9 193.1C852.6 196.7 860.5 199.4 868.3 201.2C872.6 204.1 877.1 206.8 881.5 209.3C881.4 209.4 881.4 209.5 881.3 209.6C877.9 215.4 874.1 220 870.2 223.3C857.9 222.2 844.5 218.6 831.4 212.4C819.7 206.8 809.5 199.6 801.7 191.7C801.7 190.4 801.8 189 801.9 187.5H800.5V187.6ZM867.8 95.3C868.4 97.4 869.5 99.5 871 101.6C863.3 105.6 855.5 110.8 848 116.8C839.5 108.9 831.7 99.7 823.9 89.4C823.9 89.4 824 89.4 824 89.3C827.5 88 831.1 87 834.9 86.2C845.8 84.1 857.3 84.4 868.6 87.2C867.3 89.5 867 92.3 867.8 95.3ZM869.6 94.8C868.9 92.2 869.2 89.8 870.5 87.8L870.6 87.7C876.6 89.3 882.5 91.6 888.2 94.5C887 94.8 885.8 95.2 884.6 95.6C880.7 96.9 876.7 98.6 872.7 100.6C871.2 98.7 870.2 96.7 869.6 94.8ZM889 92.8C883.5 90 877.8 87.7 872 86.1C874.3 84 877.9 82.9 882.1 82.9C884.5 85.5 886.9 88.8 889 92.8ZM884.8 83.1C888.7 83.5 892.9 84.7 896.9 86.8C899.8 88.3 902.3 90.1 904.4 92.1C900.5 92 896.2 92.5 891.6 93.6C889.5 89.5 887.2 86 884.8 83.1ZM885.2 97.4C887 96.8 888.8 96.3 890.5 95.8C891.3 97.4 892 99.2 892.7 101C894 104.6 895.2 108.4 896.1 112.4C891.9 112.2 887.1 110.9 882.6 108.6C879.2 106.8 876.2 104.6 873.9 102.1C877.8 100.3 881.5 98.7 885.2 97.4ZM894.4 100.4C894 99.3 893.6 98.3 893.1 97.3C898.7 100.6 903.7 104.4 908.2 108.6C906.1 111.1 902.3 112.5 897.9 112.6C897 108.2 895.8 104.2 894.4 100.4ZM893.4 95.2C898.1 94.2 902.5 93.9 906.3 94.3C908 96.4 909.3 98.6 909.8 100.7C910.4 103 910.3 105.1 909.3 106.9C904.6 102.5 899.3 98.6 893.4 95.2ZM897.7 85.2C892.8 82.6 887.6 81.3 882.9 81.2C881.5 79.8 880 78.6 878.5 77.6C891.1 80.1 902.5 85.7 912.1 93.5C910.6 93 908.9 92.7 907.1 92.4C904.7 89.6 901.5 87.1 897.7 85.2ZM880.2 81.2C875.9 81.5 872.2 83 869.9 85.6C858.1 82.6 846.1 82.2 834.7 84.4C830.7 85.2 826.8 86.3 823.1 87.7C823 87.7 822.9 87.8 822.8 87.8C822.7 87.7 822.6 87.6 822.5 87.4C834.3 80.2 848.2 76 863.1 76C865.4 76 867.7 76.1 869.9 76.3C873.5 76.8 876.9 78.4 880.2 81.2ZM871.1 225.5C873.5 225.7 875.9 225.8 878.2 225.8C879.9 225.8 881.7 225.7 883.3 225.6C885.6 225.5 887.8 225.2 889.9 224.9C881.8 227.9 873.1 229.6 864 229.7C866.5 228.7 868.9 227.3 871.1 225.5ZM873.3 223.7C876.9 220.4 880.3 216.1 883.4 210.7C883.5 210.6 883.5 210.5 883.6 210.4C889.6 213.7 895.8 216.7 901.9 219.4C901.5 219.6 901 219.9 900.6 220.1C893 223.1 883.6 224.3 873.3 223.7ZM892.8 204C895.4 203.9 898 203.8 900.5 203.5C913.4 202 923.8 197.3 930.8 190.2C925.2 200.1 917.5 208.7 908.2 215.3C902.6 211.7 897.3 208 892.8 204Z" fill="#222222"/>
<path d="M701.5 165.8H389.7V167.5H701.5V165.8Z" fill="#222222"/>
<path d="M394.9 226.6V201.5H389.2V198.4H394.9V192.4C394.9 187.6 396.9 185.4 401.7 185.4C402.8 185.4 403.9 185.8 404.9 186V188.7C404.2 188.6 403.5 188.5 402.8 188.5C398.2 188.5 398.1 190.8 398.3 194.8V198.4H404.7V201.5H398.3V226.6H394.9Z" fill="#222222"/>
<path d="M419 200.6C412.2 200.6 409.5 207.2 409.5 212.4C409.5 217.6 412.2 224.2 419 224.2C425.8 224.2 428.5 217.6 428.5 212.4C428.5 207.3 425.8 200.6 419 200.6ZM432.1 212.5C432.1 219.9 427.9 227.4 419 227.4C410 227.4 405.9 219.9 405.9 212.5C405.9 205.1 410.1 197.6 419 197.6C428 197.6 432.1 205.1 432.1 212.5Z" fill="#222222"/>
<path d="M440.4 226.6H437V204.8C437.1 202.6 436.8 200.4 436.7 198.5H440.2L440.4 202.7H440.5C441.5 199.8 444 197.8 446.8 197.7C447.9 197.6 449 197.7 450.2 197.8V201.1C449.5 201 448.8 200.9 448.1 200.9C443.1 200.9 440.5 204.5 440.4 209.9V226.6Z" fill="#222222"/>
<path d="M484.7 210.2C484.3 204.8 481.4 200.7 475.6 200.7C470.1 200.7 467.2 205.3 466.7 210.2H484.7ZM466.6 213.3C466.7 219.3 469.5 224.4 476.4 224.4C480.4 224.4 483.7 221.5 484.5 217.7H488C486.3 224.4 482.1 227.5 475.3 227.5C466.9 227.5 463 220.3 463 212.6C463 205 467.2 197.7 475.6 197.7C485 197.7 488.4 204.6 488.4 213.4H466.6V213.3Z" fill="#222222"/>
<path d="M492.9 198.4L502.6 221.9L511.9 198.4H515.6L504.5 226.6H500.7L489.2 198.4H492.9Z" fill="#222222"/>
<path d="M538.1 210.2C537.7 204.8 534.8 200.7 529 200.7C523.5 200.7 520.6 205.3 520.1 210.2H538.1ZM520 213.3C520.1 219.3 522.9 224.4 529.8 224.4C533.8 224.4 537.1 221.5 537.9 217.7H541.4C539.7 224.4 535.5 227.5 528.7 227.5C520.3 227.5 516.4 220.3 516.4 212.6C516.4 205 520.6 197.7 529 197.7C538.4 197.7 541.8 204.6 541.8 213.4H520V213.3Z" fill="#222222"/>
<path d="M550.4 226.6H547V204.8C547.1 202.6 546.8 200.4 546.7 198.5H550.2L550.4 202.7H550.5C551.5 199.8 554 197.8 556.8 197.7C557.9 197.6 559 197.7 560.2 197.8V201.1C559.5 201 558.8 200.9 558.1 200.9C553.1 200.9 550.5 204.5 550.4 209.9V226.6Z" fill="#222222"/>
<path d="M567.4 198.4L576.9 222L586.3 198.4H590L574.4 237.3H570.7L575 226.6L563.3 198.4H567.4Z" fill="#222222"/>
<path d="M622.1 207C621.8 202.7 619.1 200.6 614.4 200.6C609.2 200.6 606 206 606 212.4C606 218.9 609.2 224.3 614.4 224.3C618.8 224.3 621.8 221.6 622.1 217.7H625.7C624.8 224.2 621.1 227.3 614.7 227.3C606.3 227.3 602.4 220.1 602.4 212.4C602.4 204.8 606.6 197.5 615 197.5C620.8 197.5 625.5 201 625.8 207H622.1Z" fill="#222222"/>
<path d="M633.8 202.7H633.9C635.9 199.2 639.1 197.6 642.7 197.6C651.9 197.6 652.6 205.7 652.6 209V226.6H649.2V208.4C649.2 203.5 646.4 200.7 641.8 200.7C636.2 200.7 633.7 205.4 633.7 210.4V226.6H630.3V186.1H633.7V202.7H633.8Z" fill="#222222"/>
<path d="M661.7 226.6H658.3V198.4H661.7V226.6ZM661.9 190.3H658V186.1H661.9V190.3Z" fill="#222222"/>
<path d="M671.7 186.1H668.3V226.6H671.7V186.1Z" fill="#222222"/>
<path d="M688.9 200.6C682.5 200.6 680.4 206.5 680.4 211.9C680.4 217.1 681.9 224.2 688.4 224.2C695.8 224.2 698 218.1 698 211.7C698 206.1 695.5 200.6 688.9 200.6ZM698.1 222.4L698 222.2C695.7 225.6 692.3 227.4 688.4 227.4C680 227.4 676.8 219.4 676.8 212.4C676.8 205.1 680 197.6 688.4 197.6C692.2 197.6 696.1 199.4 698 202.7L698.1 202.6V186.1H701.5V220.3C701.5 222.5 701.7 224.7 701.8 226.6H698.3L698.1 222.4Z" fill="#222222"/>
<path d="M678.5 120.7C674.6 118.6 674.5 115.7 674.7 114.7C674.9 113.6 675.7 114.1 676.2 114.1C678.8 114.1 681.5 113.4 684.8 110.1C688.6 106.4 689.8 98.1 684 92.7C677.8 86.9 671.1 87.9 666.9 93.1C666 94.2 663.9 95 662 94.9C659.3 94.8 661 96.9 661 97.3C661 97.7 660.6 98 660.3 98C659.4 97.7 659.7 99.1 659.7 99.5C659.7 99.9 659.3 100.1 659.1 100.1C657.9 100.1 658.3 101.1 658.3 101.4C658.3 101.7 658.2 102.1 657.8 102.3C657.4 102.5 657 103.4 657 104.1C657 105.3 658.1 106.2 660.1 107.5C662 108.9 662.3 110.2 662.3 111.1C662.3 112 662.4 113.6 662.9 114.6C663.4 115.8 663.3 118 660.7 118.1C657.5 118.2 651.7 120.7 651.2 120.9C649.4 121.5 647 121.8 645.1 121.3C644.1 120.6 643.1 119.8 642.2 119C641.8 117.7 642.5 116.4 643.1 115.5C644.2 116.5 645.8 116.5 646.7 116.5C647.6 116.5 652 115.9 652.7 115.7C653.3 115.5 653.6 115.6 654 115.7C655.7 116.3 658 116.5 658.9 113.3C659.8 110.2 657.6 111 657.3 111.2C657 111.3 656.6 111.3 656.8 111C657.2 110.2 656.6 110.3 656.2 110.3C655.3 110.2 654.1 111.1 653.7 111.5C653.3 111.8 652.9 111.8 652.8 111.7C651.6 111.1 648 112 646.9 110.1C647 109.6 646 102 645.5 100.7C645.4 100.4 645.3 100 645.6 99.5C646.5 98.2 649 99.6 650.4 99.6C652 99.6 652.3 98.9 652.7 98.4C653.1 97.9 653.4 98.2 653.7 98C654 97.8 653.7 97.4 653.8 97.2C653.9 97 654 97.1 654.3 96.9C654.6 96.7 654.3 96.2 654.4 96C654.8 95.4 655.9 95.9 655.2 94.4C654.8 93.6 655.3 92.6 655.8 92C656.6 91 659.6 86.9 654.3 82.6C649.2 78.5 644 78.8 640.7 82.3C637.4 85.8 639 90.9 639.4 92.3C639.7 93.7 638.7 94.9 637.6 95.4C636.7 95.8 634.6 97.2 633 98.5C633.3 87.5 640.1 77.8 650.7 73.7C651.1 74.2 651.6 74.8 652.2 75.2C651 76 648.5 78.3 648.5 78.3C648.5 78.3 648.9 78.4 649.2 78.4C649.4 78.5 649.9 78.6 649.9 78.6C649.9 78.6 652.2 76.7 653.2 76C654 76.6 654.9 77.1 655.9 77.5C655.4 78.3 654.1 80.7 654.1 80.7C654.1 80.7 654.4 80.9 654.7 81C655 81.2 655.1 81.3 655.1 81.3C655.1 81.3 656.5 78.7 657 77.9C658.2 78.3 659.4 78.5 660.7 78.6V83.3C660 83.3 658.2 83.2 657.5 83.1H657L657.3 83.5C657.5 83.8 657.6 84 657.8 84.3L657.9 84.4H658C658.5 84.4 660.1 84.5 660.8 84.5V93.1H662V91.1C663.8 91 665.3 90.9 667.1 90.7H667.2L668.8 89.3L667.9 89.4C666 89.6 664.3 89.8 662.8 89.8C662.8 89.8 662.3 89.8 662 89.8V84.4C664.2 84.4 666.4 84.1 668.6 83.5C669.2 84.9 670.3 88.3 670.3 88.3L671.5 88C671.5 88 670.4 84.6 669.8 83.2C671.6 82.6 673.4 81.9 675.1 81C676.5 82.6 677.6 84.4 678.6 86.2C677.7 86.6 676.1 87.1 676.1 87.1C677.4 87.2 678.3 87.5 678.3 87.5C678.3 87.5 678.8 87.3 679 87.2C679.1 87.4 679.3 87.9 679.3 87.9L680.9 88.6L680.7 88.2C680.7 88.2 680.2 87 680.1 86.7C681.8 85.9 683.4 85 685 83.9C688 88.4 689.6 93.5 689.6 98.9C689.6 107.8 685.3 115.7 678.5 120.7ZM658.3 71.7C656.6 72.4 654.9 73.3 653.3 74.4C652.8 74 652.4 73.6 652 73.1C654 72.4 656.1 71.9 658.3 71.7ZM656.6 76.4C655.8 76.1 655 75.7 654.3 75.2C655.9 74.2 657.6 73.3 659.4 72.6C658.4 73.7 657.4 75 656.6 76.4ZM660.7 72.8V77.3C659.7 77.3 658.7 77.1 657.7 76.8C658.6 75.4 659.6 74.1 660.7 72.8ZM662 78.5C663.3 78.4 664.5 78.2 665.7 77.8C666.6 79.2 667.4 80.8 668.1 82.3C666.1 82.8 664 83.1 662 83.1V78.5ZM662 72.7C663.1 74 664.1 75.3 665 76.7C664 77 663 77.2 662 77.2V72.7ZM668.4 75.1C667.7 75.6 666.9 76 666.1 76.3C665.2 75 664.3 73.7 663.3 72.5C665.1 73.2 666.8 74.1 668.4 75.1ZM670.7 73.1C670.3 73.6 669.9 74 669.4 74.4C667.8 73.4 666.2 72.5 664.5 71.8C666.6 72 668.7 72.4 670.7 73.1ZM674.2 80C672.6 80.8 670.9 81.5 669.2 82C668.5 80.4 667.7 78.8 666.7 77.3C667.6 76.9 668.5 76.4 669.4 75.8C671.2 77.1 672.8 78.5 674.2 80ZM671.9 73.5C674.3 74.4 676.5 75.7 678.5 77.2C677.5 78 676.4 78.8 675.2 79.4C673.8 77.8 672.1 76.3 670.3 75.1C671 74.6 671.5 74.1 671.9 73.5ZM684.3 83C682.8 84 681.2 84.9 679.6 85.7C678.6 83.8 677.4 82 676.1 80.4C677.3 79.7 678.5 78.9 679.5 78C681.3 79.4 683 81.1 684.3 83ZM661.4 70.4C645.1 70.4 631.9 83.2 631.9 99C631.9 114.7 645.1 127.6 661.4 127.6C677.6 127.6 690.9 114.8 690.9 99C690.8 83.2 677.6 70.4 661.4 70.4Z" fill="#222222"/>
<path d="M629.2 78L628.7 78.4C627 79.9 623 83.8 623.6 88.1L623.7 88.4L623.9 89.3L624.5 88.8C626.9 86.7 628.7 83 629.5 78.8L629.7 77.6L629.2 78Z" fill="#222222"/>
<path d="M621.2 85.4L621 85.9C620.7 86.6 620.2 88.1 620 90.1C619.6 92.9 619.7 96.9 622.3 99.9L622.6 100.3L622.9 100.7L623.3 98.9C623.7 95.7 623.2 88.9 621.9 85.9L621.5 84.9L621.2 85.4Z" fill="#222222"/>
<path d="M618.3 97V97.5C618.1 100.4 618.2 107.5 624.2 111.3L624.9 111.7V110.9C624.8 108.2 621.5 100.1 619.1 97.2L618.4 96.4L618.3 97Z" fill="#222222"/>
<path d="M619.3 109.7L619.4 110.2C620.3 114.3 624.3 120.9 630.5 122.8L631.3 123.1L631 122.3C629.8 119.2 623.9 112.1 620.1 109.8L619.2 109.3L619.3 109.7Z" fill="#222222"/>
<path d="M631.7 84.1L631.2 84.4C626.6 87.1 624.4 90.4 624.6 94.5V95.4L625.3 94.9C627.8 92.9 630.9 87.8 631.8 84.9L632.1 83.8L631.7 84.1Z" fill="#222222"/>
<path d="M629 93L628.6 93.3C627.4 94.4 623.6 98.3 623.9 103.2C624 103.9 624.1 104.8 624.4 105.6L624.7 106.4L625.2 105.7C627 103.2 629.4 96.7 629.3 93.6V92.7L629 93Z" fill="#222222"/>
<path d="M629.2 101.5L628.9 101.9C627 104.7 626 107.5 626.1 110.1C626.2 112 626.8 113.9 628 115.6L628.4 116.2L628.7 115.6C629.5 114.1 630.2 109.2 630.1 105.3C630.1 103.9 629.9 102.8 629.7 102L629.4 101.1L629.2 101.5Z" fill="#222222"/>
<path d="M631.4 110.5L631.3 110.9C630.7 112.7 630.4 114.5 630.5 116.1C630.6 119.9 632.3 122.8 635.6 124.9L636.2 125.2L636.3 124.5L636.4 123.9C636.3 120.8 633.9 113.1 632.1 110.7L631.6 110L631.4 110.5Z" fill="#222222"/>
<path d="M624.9 122.5L625.1 122.9C627.6 126.9 631.8 132.1 639.7 130.8L640.4 130.7L640 130.2C638.5 128.1 629 122.9 625.6 122.3L624.7 122.2L624.9 122.5Z" fill="#222222"/>
<path d="M636.6 132.7L635.4 133L636.6 133.5C641.6 135.5 647.9 136.1 651.5 134.9C652.9 134.4 653.7 133.7 654.7 132.8C661.1 133.4 667.1 138.6 670.6 142.8L670.8 143L671.1 142.9C671.5 142.8 672.1 142.3 672.4 142.1L672.6 141.8L672.4 141.5C668.8 136.9 663 134 662.8 133.9C657.5 131.5 648.5 129.6 636.6 132.7Z" fill="#222222"/>
<path d="M636.8 119.8L636.9 120.2C637.6 124.8 639.6 130.8 647.5 130.1H648L647.9 129.6C647.4 127.5 640.1 121.5 637.5 119.8L636.7 119.4L636.8 119.8Z" fill="#222222"/>
<path d="M693.2 77.6L693.4 78.8C694.1 83 696 86.6 698.4 88.8L699 89.3C699 89.3 699.2 88.5 699.2 88.4L699.3 88.1C699.9 83.8 696 79.9 694.2 78.4L693.7 78L693.2 77.6Z" fill="#222222"/>
<path d="M701.4 84.9L701 85.9C699.8 88.9 699.2 95.7 699.6 98.9L700 100.7L700.3 100.3L700.6 99.9C703.1 96.9 703.2 92.9 702.8 90.1C702.5 88.1 702 86.6 701.8 85.9L701.6 85.4L701.4 84.9Z" fill="#222222"/>
<path d="M704.5 96.5L703.8 97.3C701.4 100.2 698.1 108.3 698 111V111.8L698.7 111.4C704.7 107.6 704.8 100.5 704.6 97.6V97.1L704.5 96.5Z" fill="#222222"/>
<path d="M703.7 109.2L702.8 109.7C699 112.1 693 119.2 691.9 122.2L691.6 123L692.5 122.7C698.7 120.8 702.7 114.1 703.6 110.1L703.7 109.6V109.2Z" fill="#222222"/>
<path d="M690.9 83.7L691.2 84.8C692.1 87.7 695.1 92.9 697.5 94.9L698.2 95.5L698.3 94.6C698.5 90.5 696.5 87.2 691.9 84.4L691.4 84.1L690.9 83.7Z" fill="#222222"/>
<path d="M693.5 92.7V93.6C693.4 96.7 695.8 103.2 697.6 105.7L698.1 106.4L698.4 105.6C698.7 104.8 698.9 104 698.9 103.2C699.2 98.3 695.4 94.4 694.2 93.3L693.9 93L693.5 92.7Z" fill="#222222"/>
<path d="M693.4 101.1L693.1 102C692.9 102.8 692.7 103.9 692.7 105.3C692.6 109.2 693.3 114.1 694.1 115.6L694.4 116.2L694.8 115.6C696 113.9 696.6 112 696.7 110.1C696.8 107.5 695.8 104.6 693.9 101.9L693.6 101.5L693.4 101.1Z" fill="#222222"/>
<path d="M691.3 110.1L690.8 110.7C689 113.1 686.6 120.8 686.5 123.9V124.5L686.6 125.2L687.2 124.9C690.5 122.9 692.2 119.9 692.3 116.1C692.3 114.4 692.1 112.7 691.5 110.9L691.4 110.5L691.3 110.1Z" fill="#222222"/>
<path d="M698.1 122.1L697.2 122.2C693.8 122.7 684.3 128 682.8 130.1L682.4 130.6L683.1 130.7C691 132 695.2 126.8 697.7 122.8L697.9 122.4L698.1 122.1Z" fill="#222222"/>
<path d="M660.1 133.9C659.8 134 654.1 136.9 650.5 141.5L650.3 141.8L650.5 142.1C650.8 142.4 651.4 142.8 651.7 142.9L652 143L652.2 142.8C655.7 138.6 661.7 133.4 668.1 132.8C669.1 133.8 669.9 134.5 671.3 134.9C674.9 136.1 681.2 135.5 686.2 133.5L687.4 133L686.2 132.7C674.3 129.6 665.3 131.5 660.1 133.9Z" fill="#222222"/>
<path d="M686 119.4L685.2 119.8C682.6 121.5 675.4 127.5 674.8 129.6L674.7 130.1H675.2C683.2 130.8 685.1 124.8 685.8 120.2L685.9 119.8L686 119.4Z" fill="#222222"/>
<path d="M483.1 91.4H491.6V134.7H483.1V91.4ZM482.3 72.4H492.4V81.3H482.3V72.4Z" fill="#222222"/>
<path d="M419.2 91.4H427.7V134.7H419.4V128.3H419.2C415.8 133.7 410.1 136 403.9 136C394.5 136 389.2 129.1 389.2 120.4V91.4H397.7V117C397.7 124.5 399.5 130 407.6 130C411.1 130 415.8 128.3 417.6 123.8C419.2 119.7 419.3 114.6 419.3 113.6V91.4H419.2Z" fill="#222222"/>
<path d="M444.6 97.8H444.8C447.6 92.4 453.9 90.1 458.3 90.1C461.4 90.1 475.2 90.9 475.2 104.8V134.7H466.7V107.4C466.7 100.2 463.6 96.4 456.5 96.4C456.5 96.4 451.9 96.1 448.3 99.6C447.1 100.8 444.7 102.7 444.7 111.2V134.8H436.2V91.4H444.5V97.8H444.6Z" fill="#222222"/>
<path d="M527 105.3C526.6 99.9 523.9 96.1 517.9 96.1C509.9 96.1 506.8 102.9 506.8 113C506.8 123.1 509.9 129.9 517.9 129.9C523.5 129.9 526.9 126.4 527.4 120.2H535.8C535.1 129.9 527.7 135.8 517.8 135.8C503.6 135.8 497.9 126 497.9 113.3C497.9 100.7 504.4 90.1 518.5 90.1C527.9 90.1 535 95.9 535.4 105.2H527V105.3Z" fill="#222222"/>
<path d="M570.9 108.9C571.1 101.7 567.7 96.1 559.6 96.1C552.6 96.1 548.5 101.8 548.5 108.9H570.9ZM548.4 114.6C547.8 122.1 551 130 559.5 130C566.1 130 569.3 127.5 570.3 121.2H579.2C577.9 131 570.1 135.9 559.5 135.9C545.2 135.9 539.6 126.1 539.6 113.4C539.6 100.8 546.2 90.2 560.2 90.2C573.5 90.5 579.8 98.6 579.8 110.5V114.5H548.4V114.6Z" fill="#222222"/>
<path d="M589.3 134.6V97.2H581.7V91.5H589.3V82.2C589.6 72.8 596.9 70.3 603.2 70.3C605.2 70.3 607.2 70.8 609.2 71.2V78C607.8 77.9 606.4 77.7 604.9 77.7C600.1 77.7 597.4 78.9 597.6 83.6V91.5H607.9V97.2H597.6V134.6H589.3Z" fill="#222222"/>
<path d="M316.6 0V287.7" stroke="#A7A7A7" stroke-width="2.179" stroke-miterlimit="10"/>
</g>
<defs>
<clipPath id="clip0_3132_3418">
<rect width="947.3" height="287.7" fill="white"/>
</clipPath>
</defs>
</svg>
